<?xml version="1.0" standalone="no"?>
<!DOCTYPE svg PUBLIC "-//W3C//DTD SVG 20010904//EN"
 "http://www.w3.org/TR/2001/REC-SVG-20010904/DTD/svg10.dtd">
<svg version="1.0" xmlns="http://www.w3.org/2000/svg"
 width="1024.000000pt" height="1024.000000pt" viewBox="0 0 1024.000000 1024.000000"
 preserveAspectRatio="xMidYMid meet">
<metadata>
Created by potrace 1.11, written by Peter Selinger 2001-2013
</metadata>
<g transform="translate(0.000000,1024.000000) scale(0.100000,-0.100000)"
fill="#000000" stroke="none">
<path d="M5286 7432 c-799 -1 -1113 -5 -1123 -13 -19 -17 -19 -312 1 -328 10
-8 165 -11 567 -11 l554 1 18 -22 c15 -18 17 -44 17 -178 0 -109 4 -161 12
-169 8 -8 59 -12 165 -12 140 0 153 2 163 19 6 11 10 88 10 179 0 136 2 162
17 173 13 11 89 14 385 16 203 0 374 3 381 6 9 3 12 46 10 161 0 87 -3 159 -6
162 -16 16 -176 19 -1171 16z"/>
<path d="M3387 7049 c-18 -14 -20 -30 -21 -176 0 -89 1 -164 5 -167 3 -3 169
-6 369 -6 313 -1 365 1 378 14 13 12 16 44 15 171 0 98 -4 160 -11 167 -7 7
-126 11 -363 12 -307 1 -355 -1 -372 -15z"/>
<path d="M6490 7056 c-6 -6 -10 -73 -10 -167 0 -206 -11 -196 201 -189 l154 5
2 165 c2 91 -1 172 -6 179 -8 12 -42 15 -170 16 -98 1 -164 -2 -171 -9z"/>
<path d="M6883 6682 c-23 -3 -23 -5 -23 -177 0 -164 1 -175 20 -185 20 -11
269 -14 328 -3 l32 5 0 168 c0 131 -3 170 -14 179 -13 11 -286 21 -343 13z"/>
<path d="M3002 6668 c-8 -8 -12 -62 -12 -175 0 -150 -2 -165 -20 -183 -19 -19
-33 -20 -373 -20 -332 0 -355 -1 -371 -19 -14 -16 -16 -40 -14 -182 l3 -164
750 -3 c696 -2 751 -1 763 15 15 21 17 285 2 314 -10 18 -23 19 -174 19 -162
0 -163 0 -187 26 -23 25 -24 30 -25 192 -1 92 -2 173 -3 180 -2 17 -322 17
-339 0z"/>
<path d="M4938 6659 c-16 -9 -17 -52 -17 -549 0 -467 2 -542 15 -555 12 -12
45 -15 168 -15 137 0 155 2 170 19 16 17 16 61 12 556 -4 433 -7 539 -18 546
-18 12 -309 11 -330 -2z"/>
<path d="M7274 6287 c-12 -7 -14 -94 -14 -572 l0 -564 -27 -21 -28 -22 -743 3
c-705 4 -744 3 -757 -14 -9 -13 -13 -63 -13 -180 -1 -89 -1 -165 -2 -169 0 -5
-78 -8 -174 -8 -142 0 -176 -3 -186 -15 -9 -11 -12 -61 -11 -184 2 -160 1
-170 -18 -180 -12 -7 -88 -11 -188 -11 -118 0 -173 -4 -181 -12 -18 -18 -17
-332 1 -347 8 -6 81 -12 193 -13 l179 -3 5 -176 c4 -125 9 -181 18 -192 11
-13 38 -16 176 -15 89 1 167 -2 174 -6 15 -9 17 -348 2 -377 -10 -19 -32 -19
-965 -19 -933 0 -955 0 -965 19 -6 11 -10 90 -10 183 0 114 -4 168 -12 176 -9
9 -104 12 -368 12 -264 0 -359 3 -368 12 -17 17 -17 359 0 376 9 9 105 12 369
12 291 0 359 3 368 14 8 9 11 66 9 182 l-3 169 -569 3 c-400 1 -573 5 -583 13
-10 9 -13 52 -13 185 0 125 -3 175 -12 180 -7 4 -85 8 -175 8 -119 1 -165 4
-175 14 -10 10 -14 130 -16 577 -2 522 -4 565 -20 573 -23 12 -320 8 -332 -4
-6 -6 -12 -246 -16 -569 -7 -528 -6 -561 11 -575 13 -11 56 -15 177 -18 193
-5 181 7 172 -186 l-7 -132 29 -32 29 -31 162 -3 c89 -2 164 -5 166 -8 3 -3 7
-153 8 -335 3 -342 8 -412 28 -425 7 -4 88 -9 180 -12 93 -3 173 -8 179 -12 8
-5 12 -56 12 -161 0 -156 7 -197 39 -212 9 -4 170 -10 359 -13 290 -4 344 -7
352 -20 5 -8 10 -85 10 -171 0 -118 3 -160 14 -175 14 -19 37 -19 947 -22 513
-2 942 -1 955 2 50 13 54 26 54 196 0 127 3 162 15 173 13 13 140 16 946 19
l931 3 29 33 30 34 -2 150 c-2 136 0 153 17 165 13 9 58 13 165 13 121 0 150
3 163 16 18 18 20 75 17 489 -1 157 2 266 8 275 8 12 45 16 190 20 123 3 184
9 192 17 14 14 17 328 4 341 -4 4 -91 9 -195 12 -104 3 -192 9 -197 13 -4 5
-9 88 -10 184 -1 114 -6 180 -13 187 -7 7 -73 13 -168 16 -86 3 -164 9 -173
13 -14 7 -17 54 -22 384 -4 207 -7 453 -7 547 -1 129 -4 175 -14 189 -13 16
-32 19 -166 20 -83 1 -158 -2 -166 -6z m714 -1724 c2 -162 2 -163 -20 -168
-13 -3 -527 -4 -1143 -3 l-1120 3 -3 168 -2 167 1142 -2 1143 -3 3 -162z
m-2333 -229 c13 -13 15 -40 13 -177 l-3 -162 -166 -3 c-128 -2 -168 0 -171 10
-2 7 -2 86 0 175 l4 162 142 4 c77 1 146 4 153 5 6 1 19 -5 28 -14z m1943
-545 c2 -126 -1 -168 -10 -175 -8 -5 -407 -7 -948 -4 l-935 5 -3 160 c-1 87 0
165 2 172 4 11 184 13 948 11 l943 -3 3 -166z"/>
<path d="M6498 6259 c-17 -9 -18 -37 -18 -348 0 -310 1 -339 18 -352 13 -12
49 -15 165 -14 87 1 152 6 158 12 16 16 13 694 -3 705 -19 11 -300 9 -320 -3z"/>
<path d="M3772 5888 c-8 -8 -12 -59 -12 -165 0 -147 1 -153 23 -166 29 -19
322 -16 340 2 8 8 13 62 14 162 1 120 -2 152 -14 164 -19 20 -332 22 -351 3z"/>
<path d="M4165 5497 c-3 -6 -4 -174 -3 -372 l3 -360 155 -5 c138 -4 157 -3
173 13 15 15 17 47 17 365 0 257 -3 351 -12 360 -17 17 -327 17 -333 -1z"/>
<path d="M5332 5497 c-14 -17 -19 -324 -5 -338 11 -11 317 -14 335 -3 13 8 10
328 -4 342 -17 17 -312 17 -326 -1z"/>
<path d="M3789 4730 l-24 -6 -3 -164 c-1 -90 1 -167 6 -172 5 -5 84 -10 177
-10 146 -2 169 0 180 15 12 17 15 320 3 333 -8 8 -307 11 -339 4z"/>
</g>
</svg>
