<svg height="512" viewBox="0 0 512 512" width="512" xmlns="http://www.w3.org/2000/svg"><rect height="512" rx="64" ry="64" width="512" fill="#515151"/><path d="M111.797 239.164c-.635 0 6.965 16.085 7.176 16.085 16.592 29.595 48.566 48 102.516 53.08-7.7 5.746-16.95 16.66-18.233 29.254-9.68 6.144-29.15 8.18-44.28 3.493-21.21-6.586-29.33-47.846-61.086-41.965-6.87 1.267-5.504 5.726.437 9.514 9.685 6.15 18.79 13.856 25.81 30.254 5.403 12.58 16.75 35.074 52.632 35.074 14.227 0 24.207-1.692 24.207-1.692s.268 32.137.268 44.628c0 14.418-19.79 18.474-19.79 25.402 0 2.738 6.556 2.998 11.815 2.998 10.402 0 32.04-8.537 32.04-23.51 0-11.888.198-51.896.198-58.893 0-15.29 8.343-20.142 8.343-20.142s1.034 81.666-1.988 92.618c-3.555 12.868-9.967 11.04-9.967 16.786 0 8.547 26.052 2.086 34.69-16.66 6.668-14.593 3.75-94.71 3.75-94.71l7.117-.147s.402 36.674.155 53.447c-.25 17.362-1.45 39.316 9.04 49.67 6.895 6.802 29.23 18.76 29.23 7.836 0-6.344-12.238-11.55-12.238-28.71V343.87c9.78 0 8.308 25.966 8.308 25.966l.71 48.28s-2.155 17.58 19.363 24.93c7.596 2.62 23.816 3.31 24.59-1.055.767-4.39-19.557-10.915-19.744-24.542-.124-8.293.383-13.143.383-49.242 0-36.1-4.94-49.437-22.13-60.067 53.032-5.348 85.87-18.252 101.86-52.78 1.244.024 6.524-16.13 5.836-16.13 3.586-13.038 5.54-28.463 5.903-46.722-.09-49.54-24.204-67.05-28.835-75.27 6.828-37.508-1.147-54.557-4.847-60.416-13.67-4.775-47.545 12.293-66.065 24.31-30.157-8.662-93.944-7.836-117.864 2.235-44.133-31.06-67.485-26.298-67.485-26.298s-15.09 26.575-3.987 65.47c-14.518 18.194-25.344 31.057-25.344 65.17.014 19.24 2.317 36.438 7.503 51.454z" fill="#fff"/></svg>