<svg width="210" height="194" viewBox="0 0 210 194" xmlns="http://www.w3.org/2000/svg"><title>Group</title><g fill="none" fill-rule="evenodd"><path d="M105.06 193.655l38.64-118.92H66.42l38.64 118.92z" fill="#E24329"/><path d="M105.06 193.655L66.42 74.735H12.27l92.793 118.92z" fill="#FC6D26"/><path d="M12.268 74.734L.526 110.874a8 8 0 0 0 2.907 8.943l101.628 73.838-92.79-118.92z" fill="#FCA326"/><path d="M12.268 74.734H66.42L43.15 3.11c-1.197-3.687-6.41-3.686-7.608 0L12.27 74.733z" fill="#E24329"/><path d="M105.06 193.655l38.64-118.92h54.154l-92.793 118.92z" fill="#FC6D26"/><path d="M197.854 74.734l11.742 36.14a8 8 0 0 1-2.906 8.943l-101.63 73.838 92.794-118.92z" fill="#FCA326"/><path d="M197.854 74.734H143.7L166.975 3.11c1.197-3.687 6.41-3.686 7.608 0l23.272 71.624z" fill="#E24329"/></g></svg>