<svg height="128" viewBox="0 0 128 128" width="128" xmlns="http://www.w3.org/2000/svg"><path d="M128 112c0 8.8-7.2 16-16 16H16c-8.8 0-16-7.2-16-16V16C0 7.2 7.2 0 16 0h96c8.8 0 16 7.2 16 16v96z" fill="#D95032"/><g fill="#FFF"><path d="M49.21 70.99h16.883c-1.94 7.84-7.91 12.213-17.033 12.213-10.78 0-19.554-8.615-19.554-19.202 0-10.59 8.772-19.203 19.554-19.203 4.715 0 9.268 1.67 12.82 4.706l8.117-9.16c-5.803-4.96-13.238-7.69-20.937-7.69-17.6 0-31.917 14.063-31.917 31.347 0 17.283 14.317 31.345 31.917 31.345 17.994 0 30.083-12.23 30.083-30.427v-6.073H49.21V70.99zM117.143 58.74h-11v-11h-8v11h-11v8h11v11h8v-11h11z"/></g></svg>