<svg height="512" viewBox="0 0 512 512" width="512" xmlns="http://www.w3.org/2000/svg"><g transform="translate(297.22)"><rect height="512" rx="64" ry="64" width="512" x="-297.22" fill="#64a9dc"/><path d="M127.88 94.198l-346.347 133.587c-23.638 9.484-23.498 22.67-4.308 28.548l86.38 26.96 33.05 101.333c4.02 11.09 2.038 15.49 13.685 15.49 8.987 0 12.975-4.098 17.98-8.988 3.184-3.115 22.084-21.49 43.188-42.01l89.852 66.387c16.533 9.122 28.472 4.396 32.59-15.356l58.98-277.94c6.038-24.21-9.23-35.19-25.05-28.012zM-122.84 277.1L71.864 154.262c9.72-5.895 18.63-2.726 11.314 3.77L-83.538 308.45l-6.492 69.234-32.81-100.586z" fill="#fff"/></g></svg>