<svg version="1" xmlns="http://www.w3.org/2000/svg" width="1365.333" height="1365.333" viewBox="0 0 1024.000000 1024.000000"><path d="M528.6 280.8c-79.9.1-111.3.5-112.3 1.3-1.9 1.7-1.9 31.2.1 32.8 1 .8 16.5 1.1 56.7 1.1l55.4-.1 1.8 2.2c1.5 1.8 1.7 4.4 1.7 17.8 0 10.9.4 16.1 1.2 16.9.8.8 5.9 1.2 16.5 1.2 14 0 15.3-.2 16.3-1.9.6-1.1 1-8.8 1-17.9 0-13.6.2-16.2 1.7-17.3 1.3-1.1 8.9-1.4 38.5-1.6 20.3 0 37.4-.3 38.1-.6.9-.3 1.2-4.6 1-16.1 0-8.7-.3-15.9-.6-16.2-1.6-1.6-17.6-1.9-117.1-1.6zM338.7 319.1c-1.8 1.4-2 3-2.1 17.6 0 8.9.1 16.4.5 16.7.3.3 16.9.6 36.9.6 31.3.1 36.5-.1 37.8-1.4 1.3-1.2 1.6-4.4 1.5-17.1 0-9.8-.4-16-1.1-16.7-.7-.7-12.6-1.1-36.3-1.2-30.7-.1-35.5.1-37.2 1.5zM649 318.4c-.6.6-1 7.3-1 16.7 0 20.6-1.1 19.6 20.1 18.9l15.4-.5.2-16.5c.2-9.1-.1-17.2-.6-17.9-.8-1.2-4.2-1.5-17-1.6-9.8-.1-16.4.2-17.1.9zM688.3 355.8c-2.3.3-2.3.5-2.3 17.7 0 16.4.1 17.5 2 18.5 2 1.1 26.9 1.4 32.8.3l3.2-.5V375c0-13.1-.3-17-1.4-17.9-1.3-1.1-28.6-2.1-34.3-1.3zM300.2 357.2c-.8.8-1.2 6.2-1.2 17.5 0 15-.2 16.5-2 18.3-1.9 1.9-3.3 2-37.3 2-33.2 0-35.5.1-37.1 1.9-1.4 1.6-1.6 4-1.4 18.2l.3 16.4 75 .3c69.6.2 75.1.1 76.3-1.5 1.5-2.1 1.7-28.5.2-31.4-1-1.8-2.3-1.9-17.4-1.9-16.2 0-16.3 0-18.7-2.6-2.3-2.5-2.4-3-2.5-19.2-.1-9.2-.2-17.3-.3-18-.2-1.7-32.2-1.7-33.9 0zM493.8 358.1c-1.6.9-1.7 5.2-1.7 54.9 0 46.7.2 54.2 1.5 55.5 1.2 1.2 4.5 1.5 16.8 1.5 13.7 0 15.5-.2 17-1.9 1.6-1.7 1.6-6.1 1.2-55.6-.4-43.3-.7-53.9-1.8-54.6-1.8-1.2-30.9-1.1-33 .2z"/><path d="M727.4 395.3c-1.2.7-1.4 9.4-1.4 57.2v56.4l-2.7 2.1-2.8 2.2-74.3-.3c-70.5-.4-74.4-.3-75.7 1.4-.9 1.3-1.3 6.3-1.3 18-.1 8.9-.1 16.5-.2 16.9 0 .5-7.8.8-17.4.8-14.2 0-17.6.3-18.6 1.5-.9 1.1-1.2 6.1-1.1 18.4.2 16 .1 17-1.8 18-1.2.7-8.8 1.1-18.8 1.1-11.8 0-17.3.4-18.1 1.2-1.8 1.8-1.7 33.2.1 34.7.8.6 8.1 1.2 19.3 1.3l17.9.3.5 17.6c.4 12.5.9 18.1 1.8 19.2 1.1 1.3 3.8 1.6 17.6 1.5 8.9-.1 16.7.2 17.4.6 1.5.9 1.7 34.8.2 37.7-1 1.9-3.2 1.9-96.5 1.9s-95.5 0-96.5-1.9c-.6-1.1-1-9-1-18.3 0-11.4-.4-16.8-1.2-17.6-.9-.9-10.4-1.2-36.8-1.2s-35.9-.3-36.8-1.2c-1.7-1.7-1.7-35.9 0-37.6.9-.9 10.5-1.2 36.9-1.2 29.1 0 35.9-.3 36.8-1.4.8-.9 1.1-6.6.9-18.2l-.3-16.9-56.9-.3c-40-.1-57.3-.5-58.3-1.3-1-.9-1.3-5.2-1.3-18.5 0-12.5-.3-17.5-1.2-18-.7-.4-8.5-.8-17.5-.8-11.9-.1-16.5-.4-17.5-1.4-1-1-1.4-13-1.6-57.7-.2-52.2-.4-56.5-2-57.3-2.3-1.2-32-.8-33.2.4-.6.6-1.2 24.6-1.6 56.9-.7 52.8-.6 56.1 1.1 57.5 1.3 1.1 5.6 1.5 17.7 1.8 19.3.5 18.1-.7 17.2 18.6l-.7 13.2 2.9 3.2 2.9 3.1 16.2.3c8.9.2 16.4.5 16.6.8.3.3.7 15.3.8 33.5.3 34.2.8 41.2 2.8 42.5.7.4 8.8.9 18 1.2 9.3.3 17.3.8 17.9 1.2.8.5 1.2 5.6 1.2 16.1 0 15.6.7 19.7 3.9 21.2.9.4 17 1 35.9 1.3 29 .4 34.4.7 35.2 2 .5.8 1 8.5 1 17.1 0 11.8.3 16 1.4 17.5 1.4 1.9 3.7 1.9 94.7 2.2 51.3.2 94.2.1 95.5-.2 5-1.3 5.4-2.6 5.4-19.6 0-12.7.3-16.2 1.5-17.3 1.3-1.3 14-1.6 94.6-1.9l93.1-.3 2.9-3.3 3-3.4-.2-15c-.2-13.6 0-15.3 1.7-16.5 1.3-.9 5.8-1.3 16.5-1.3 12.1 0 15-.3 16.3-1.6 1.8-1.8 2-7.5 1.7-48.9-.1-15.7.2-26.6.8-27.5.8-1.2 4.5-1.6 19-2 12.3-.3 18.4-.9 19.2-1.7 1.4-1.4 1.7-32.8.4-34.1-.4-.4-9.1-.9-19.5-1.2-10.4-.3-19.2-.9-19.7-1.3-.4-.5-.9-8.8-1-18.4-.1-11.4-.6-18-1.3-18.7-.7-.7-7.3-1.3-16.8-1.6-8.6-.3-16.4-.9-17.3-1.3-1.4-.7-1.7-5.4-2.2-38.4-.4-20.7-.7-45.3-.7-54.7-.1-12.9-.4-17.5-1.4-18.9-1.3-1.6-3.2-1.9-16.6-2-8.3-.1-15.8.2-16.6.6zm71.4 172.4c.2 16.2.2 16.3-2 16.8-1.3.3-52.7.4-114.3.3l-112-.3-.3-16.8-.2-16.7 114.2.2 114.3.3.3 16.2zm-233.3 22.9c1.3 1.3 1.5 4 1.3 17.7l-.3 16.2-16.6.3c-12.8.2-16.8 0-17.1-1-.2-.7-.2-8.6 0-17.5l.4-16.2 14.2-.4c7.7-.1 14.6-.4 15.3-.5.6-.1 1.9.5 2.8 1.4zm194.3 54.5c.2 12.6-.1 16.8-1 17.5-.8.5-40.7.7-94.8.4l-93.5-.5-.3-16c-.1-8.7 0-16.5.2-17.2.4-1.1 18.4-1.3 94.8-1.1l94.3.3.3 16.6z"/><path d="M649.8 398.1c-1.7.9-1.8 3.7-1.8 34.8 0 31 .1 33.9 1.8 35.2 1.3 1.2 4.9 1.5 16.5 1.4 8.7-.1 15.2-.6 15.8-1.2 1.6-1.6 1.3-69.4-.3-70.5-1.9-1.1-30-.9-32 .3zM377.2 435.2c-.8.8-1.2 5.9-1.2 16.5 0 14.7.1 15.3 2.3 16.6 2.9 1.9 32.2 1.6 34-.2.8-.8 1.3-6.2 1.4-16.2.1-12-.2-15.2-1.4-16.4-1.9-2-33.2-2.2-35.1-.3zM416.5 474.3c-.3.6-.4 17.4-.3 37.2l.3 36 15.5.5c13.8.4 15.7.3 17.3-1.3 1.5-1.5 1.7-4.7 1.7-36.5 0-25.7-.3-35.1-1.2-36-1.7-1.7-32.7-1.7-33.3.1zM533.2 474.3c-1.4 1.7-1.9 32.4-.5 33.8 1.1 1.1 31.7 1.4 33.5.3 1.3-.8 1-32.8-.4-34.2-1.7-1.7-31.2-1.7-32.6.1zM378.9 551l-2.4.6-.3 16.4c-.1 9 .1 16.7.6 17.2s8.4 1 17.7 1c14.6.2 16.9 0 18-1.5 1.2-1.7 1.5-32 .3-33.3-.8-.8-30.7-1.1-33.9-.4z"/></svg>