<svg height="512" viewBox="0 0 512 512" width="512" xmlns="http://www.w3.org/2000/svg"><rect height="512" rx="64" ry="64" width="512" fill="#01b7ee"/><path d="M441.88 298.488c2.804-13.007 4.367-26.53 4.367-40.378 0-103.91-84.25-188.117-188.15-188.117-10.974 0-21.733.948-32.17 2.726C209.087 62.166 189.2 56 167.863 56 107.63 56 58.766 104.842 58.766 165.07c0 20.16 5.496 38.98 15.018 55.19a189.284 189.284 0 0 0-3.805 37.835c0 103.883 84.21 188.11 188.117 188.11 11.76 0 23.276-1.11 34.463-3.14 15.344 8.24 32.918 12.935 51.57 12.935 60.233 0 109.104-48.84 109.104-109.088 0-17.38-4.13-33.83-11.353-48.424zm-87.31 49.55c-8.693 12.302-21.545 22.077-38.223 29-16.49 6.853-36.29 10.323-58.765 10.323-27.02 0-49.67-4.764-67.36-14.125-12.627-6.84-23.055-16.067-30.97-27.49-8.006-11.516-12.046-22.95-12.046-34.01 0-6.883 2.677-12.826 7.86-17.746 5.15-4.842 11.774-7.314 19.633-7.314 6.48 0 12.05 1.95 16.592 5.77 4.34 3.694 8.012 9.1 11.03 16.117 3.352 7.63 6.955 14.107 10.795 19.165 3.695 4.893 9.002 8.966 15.807 12.19 6.79 3.244 15.998 4.877 27.317 4.877 15.576 0 28.294-3.348 37.887-9.883 9.373-6.385 13.9-14.066 13.9-23.467 0-7.427-2.33-13.267-7.262-17.84-5.078-4.783-11.865-8.51-20.088-11.08-8.516-2.69-20.162-5.545-34.5-8.572-19.528-4.146-36.12-9.112-49.316-14.735-13.463-5.748-24.342-13.686-32.295-23.657-8.082-10.117-12.154-22.778-12.154-37.684 0-14.227 4.294-27.006 12.774-38.09 8.407-10.964 20.707-19.507 36.498-25.322 15.65-5.794 34.213-8.738 55.213-8.738 16.815 0 31.547 1.948 43.89 5.805 12.41 3.878 22.876 9.08 31.077 15.507 8.266 6.46 14.45 13.372 18.29 20.545 3.92 7.298 5.86 14.48 5.86 21.466 0 6.718-2.586 12.832-7.716 18.146-5.126 5.353-11.65 8.116-19.307 8.116-6.95 0-12.413-1.71-16.175-5.06-3.55-3.113-7.23-7.985-11.266-14.94-4.66-8.9-10.336-15.9-16.856-20.886-6.33-4.82-16.885-7.262-31.396-7.262-13.49 0-24.448 2.71-32.61 8.06-7.85 5.13-11.647 11.05-11.647 18.03 0 4.277 1.2 7.9 3.75 10.957 2.654 3.26 6.44 6.11 11.207 8.515 4.967 2.498 10.04 4.456 15.135 5.86 5.223 1.437 14.01 3.583 26.008 6.386 15.23 3.256 29.22 6.92 41.596 10.87 12.522 4.02 23.36 8.95 32.17 14.697 9.01 5.878 16.162 13.435 21.238 22.38 5.04 9.05 7.618 20.202 7.618 33.16-.035 15.464-4.456 29.582-13.193 41.96z" fill="#fff"/></svg>