<svg height="128" viewBox="0 0 128 128" width="128" xmlns="http://www.w3.org/2000/svg"><path d="M128 112c0 8.8-7.2 16-16 16H16c-8.8 0-16-7.2-16-16V16C0 7.2 7.2 0 16 0h96c8.8 0 16 7.2 16 16v96z" fill="#55ACEE"/><path d="M109 37.71a35.986 35.986 0 0 1-10.37 2.843 18.1 18.1 0 0 0 7.94-9.988 36.143 36.143 0 0 1-11.466 4.38 18.03 18.03 0 0 0-13.177-5.7c-9.973 0-18.056 8.082-18.056 18.052 0 1.416.16 2.792.47 4.115-15.008-.753-28.31-7.94-37.214-18.863a17.966 17.966 0 0 0-2.445 9.075c0 6.263 3.19 11.79 8.033 15.027a17.977 17.977 0 0 1-8.178-2.26c-.002.076-.002.152-.002.228 0 8.75 6.223 16.042 14.482 17.703a18.11 18.11 0 0 1-8.153.308c2.298 7.174 8.966 12.397 16.865 12.54a36.233 36.233 0 0 1-22.422 7.726 36.02 36.02 0 0 1-4.307-.252 51.1 51.1 0 0 0 27.676 8.112c33.207 0 51.367-27.51 51.367-51.368 0-.782-.02-1.562-.054-2.335A36.532 36.532 0 0 0 109 37.71" fill="#FFF"/></svg>